<mxfile host="app.diagrams.net" modified="2024-04-05T23:26:48.057Z" agent="Mozilla/5.0 (Windows NT 10.0; Win64; x64) AppleWebKit/537.36 (KHTML, like Gecko) Chrome/120.0.0.0 YaBrowser/24.1.0.0 Safari/537.36" etag="xWG-dXkdbyIsG9J83uUN" version="21.2.3" type="device">
  <diagram name="Страница 1" id="kJOdEKDTGWDT3PKC665U">
    <mxGraphModel dx="1386" dy="783" grid="1" gridSize="10" guides="1" tooltips="1" connect="1" arrows="1" fold="1" page="1" pageScale="1" pageWidth="827" pageHeight="1169" math="0" shadow="0">
      <root>
        <mxCell id="0" />
        <mxCell id="1" parent="0" />
        <mxCell id="jmR1hvINmtqzF-7DUhkX-2" value="Animal (abstract)" style="swimlane;fontStyle=0;childLayout=stackLayout;horizontal=1;startSize=30;horizontalStack=0;resizeParent=1;resizeParentMax=0;resizeLast=0;collapsible=1;marginBottom=0;whiteSpace=wrap;html=1;" vertex="1" parent="1">
          <mxGeometry x="330" y="40" width="140" height="150" as="geometry" />
        </mxCell>
        <mxCell id="jmR1hvINmtqzF-7DUhkX-3" value="name" style="text;align=left;verticalAlign=middle;spacingLeft=4;spacingRight=4;overflow=hidden;points=[[0,0.5],[1,0.5]];portConstraint=eastwest;rotatable=0;whiteSpace=wrap;html=1;" vertex="1" parent="jmR1hvINmtqzF-7DUhkX-2">
          <mxGeometry y="30" width="140" height="30" as="geometry" />
        </mxCell>
        <mxCell id="jmR1hvINmtqzF-7DUhkX-4" value="birthday" style="text;align=left;verticalAlign=middle;spacingLeft=4;spacingRight=4;overflow=hidden;points=[[0,0.5],[1,0.5]];portConstraint=eastwest;rotatable=0;whiteSpace=wrap;html=1;" vertex="1" parent="jmR1hvINmtqzF-7DUhkX-2">
          <mxGeometry y="60" width="140" height="30" as="geometry" />
        </mxCell>
        <mxCell id="jmR1hvINmtqzF-7DUhkX-24" value="age" style="text;align=left;verticalAlign=middle;spacingLeft=4;spacingRight=4;overflow=hidden;points=[[0,0.5],[1,0.5]];portConstraint=eastwest;rotatable=0;whiteSpace=wrap;html=1;" vertex="1" parent="jmR1hvINmtqzF-7DUhkX-2">
          <mxGeometry y="90" width="140" height="30" as="geometry" />
        </mxCell>
        <mxCell id="jmR1hvINmtqzF-7DUhkX-5" value="commands" style="text;align=left;verticalAlign=middle;spacingLeft=4;spacingRight=4;overflow=hidden;points=[[0,0.5],[1,0.5]];portConstraint=eastwest;rotatable=0;whiteSpace=wrap;html=1;" vertex="1" parent="jmR1hvINmtqzF-7DUhkX-2">
          <mxGeometry y="120" width="140" height="30" as="geometry" />
        </mxCell>
        <mxCell id="jmR1hvINmtqzF-7DUhkX-6" value="Pets (abstract)" style="swimlane;fontStyle=0;childLayout=stackLayout;horizontal=1;startSize=30;horizontalStack=0;resizeParent=1;resizeParentMax=0;resizeLast=0;collapsible=1;marginBottom=0;whiteSpace=wrap;html=1;" vertex="1" parent="1">
          <mxGeometry x="520" y="220" width="140" height="180" as="geometry">
            <mxRectangle x="530" y="190" width="160" height="30" as="alternateBounds" />
          </mxGeometry>
        </mxCell>
        <mxCell id="jmR1hvINmtqzF-7DUhkX-7" value="name (inherit)" style="text;align=left;verticalAlign=middle;spacingLeft=4;spacingRight=4;overflow=hidden;points=[[0,0.5],[1,0.5]];portConstraint=eastwest;rotatable=0;whiteSpace=wrap;html=1;" vertex="1" parent="jmR1hvINmtqzF-7DUhkX-6">
          <mxGeometry y="30" width="140" height="30" as="geometry" />
        </mxCell>
        <mxCell id="jmR1hvINmtqzF-7DUhkX-8" value="birthday (inherit)" style="text;align=left;verticalAlign=middle;spacingLeft=4;spacingRight=4;overflow=hidden;points=[[0,0.5],[1,0.5]];portConstraint=eastwest;rotatable=0;whiteSpace=wrap;html=1;" vertex="1" parent="jmR1hvINmtqzF-7DUhkX-6">
          <mxGeometry y="60" width="140" height="30" as="geometry" />
        </mxCell>
        <mxCell id="jmR1hvINmtqzF-7DUhkX-9" value="age (inherit)" style="text;align=left;verticalAlign=middle;spacingLeft=4;spacingRight=4;overflow=hidden;points=[[0,0.5],[1,0.5]];portConstraint=eastwest;rotatable=0;whiteSpace=wrap;html=1;" vertex="1" parent="jmR1hvINmtqzF-7DUhkX-6">
          <mxGeometry y="90" width="140" height="30" as="geometry" />
        </mxCell>
        <mxCell id="jmR1hvINmtqzF-7DUhkX-26" value="commands (inherit)" style="text;align=left;verticalAlign=middle;spacingLeft=4;spacingRight=4;overflow=hidden;points=[[0,0.5],[1,0.5]];portConstraint=eastwest;rotatable=0;whiteSpace=wrap;html=1;" vertex="1" parent="jmR1hvINmtqzF-7DUhkX-6">
          <mxGeometry y="120" width="140" height="30" as="geometry" />
        </mxCell>
        <mxCell id="jmR1hvINmtqzF-7DUhkX-22" value="owner" style="text;align=left;verticalAlign=middle;spacingLeft=4;spacingRight=4;overflow=hidden;points=[[0,0.5],[1,0.5]];portConstraint=eastwest;rotatable=0;whiteSpace=wrap;html=1;" vertex="1" parent="jmR1hvINmtqzF-7DUhkX-6">
          <mxGeometry y="150" width="140" height="30" as="geometry" />
        </mxCell>
        <mxCell id="jmR1hvINmtqzF-7DUhkX-10" value="Pack animal (abstract)" style="swimlane;fontStyle=0;childLayout=stackLayout;horizontal=1;startSize=30;horizontalStack=0;resizeParent=1;resizeParentMax=0;resizeLast=0;collapsible=1;marginBottom=0;whiteSpace=wrap;html=1;" vertex="1" parent="1">
          <mxGeometry x="140" y="220" width="140" height="180" as="geometry" />
        </mxCell>
        <mxCell id="jmR1hvINmtqzF-7DUhkX-11" value="name (inherit)" style="text;align=left;verticalAlign=middle;spacingLeft=4;spacingRight=4;overflow=hidden;points=[[0,0.5],[1,0.5]];portConstraint=eastwest;rotatable=0;whiteSpace=wrap;html=1;" vertex="1" parent="jmR1hvINmtqzF-7DUhkX-10">
          <mxGeometry y="30" width="140" height="30" as="geometry" />
        </mxCell>
        <mxCell id="jmR1hvINmtqzF-7DUhkX-13" value="age (inherit)" style="text;align=left;verticalAlign=middle;spacingLeft=4;spacingRight=4;overflow=hidden;points=[[0,0.5],[1,0.5]];portConstraint=eastwest;rotatable=0;whiteSpace=wrap;html=1;" vertex="1" parent="jmR1hvINmtqzF-7DUhkX-10">
          <mxGeometry y="60" width="140" height="30" as="geometry" />
        </mxCell>
        <mxCell id="jmR1hvINmtqzF-7DUhkX-12" value="birthday (inherit)" style="text;align=left;verticalAlign=middle;spacingLeft=4;spacingRight=4;overflow=hidden;points=[[0,0.5],[1,0.5]];portConstraint=eastwest;rotatable=0;whiteSpace=wrap;html=1;" vertex="1" parent="jmR1hvINmtqzF-7DUhkX-10">
          <mxGeometry y="90" width="140" height="30" as="geometry" />
        </mxCell>
        <mxCell id="jmR1hvINmtqzF-7DUhkX-25" value="commands (inherit)" style="text;align=left;verticalAlign=middle;spacingLeft=4;spacingRight=4;overflow=hidden;points=[[0,0.5],[1,0.5]];portConstraint=eastwest;rotatable=0;whiteSpace=wrap;html=1;" vertex="1" parent="jmR1hvINmtqzF-7DUhkX-10">
          <mxGeometry y="120" width="140" height="30" as="geometry" />
        </mxCell>
        <mxCell id="jmR1hvINmtqzF-7DUhkX-16" value="max weight" style="text;align=left;verticalAlign=middle;spacingLeft=4;spacingRight=4;overflow=hidden;points=[[0,0.5],[1,0.5]];portConstraint=eastwest;rotatable=0;whiteSpace=wrap;html=1;" vertex="1" parent="jmR1hvINmtqzF-7DUhkX-10">
          <mxGeometry y="150" width="140" height="30" as="geometry" />
        </mxCell>
        <mxCell id="jmR1hvINmtqzF-7DUhkX-14" value="" style="endArrow=classic;html=1;rounded=0;entryX=1.006;entryY=0.099;entryDx=0;entryDy=0;exitX=0.253;exitY=1;exitDx=0;exitDy=0;exitPerimeter=0;entryPerimeter=0;" edge="1" parent="1" source="jmR1hvINmtqzF-7DUhkX-5" target="jmR1hvINmtqzF-7DUhkX-10">
          <mxGeometry width="50" height="50" relative="1" as="geometry">
            <mxPoint x="330" y="250" as="sourcePoint" />
            <mxPoint x="380" y="200" as="targetPoint" />
            <Array as="points">
              <mxPoint x="365" y="235" />
            </Array>
          </mxGeometry>
        </mxCell>
        <mxCell id="jmR1hvINmtqzF-7DUhkX-15" value="" style="endArrow=classic;html=1;rounded=0;entryX=-0.002;entryY=0.099;entryDx=0;entryDy=0;exitX=0.735;exitY=1.023;exitDx=0;exitDy=0;exitPerimeter=0;entryPerimeter=0;" edge="1" parent="1" source="jmR1hvINmtqzF-7DUhkX-5" target="jmR1hvINmtqzF-7DUhkX-6">
          <mxGeometry width="50" height="50" relative="1" as="geometry">
            <mxPoint x="375" y="170" as="sourcePoint" />
            <mxPoint x="291" y="246" as="targetPoint" />
            <Array as="points">
              <mxPoint x="433" y="235" />
            </Array>
          </mxGeometry>
        </mxCell>
        <mxCell id="jmR1hvINmtqzF-7DUhkX-17" value="Horse" style="swimlane;fontStyle=0;childLayout=stackLayout;horizontal=1;startSize=30;horizontalStack=0;resizeParent=1;resizeParentMax=0;resizeLast=0;collapsible=1;marginBottom=0;whiteSpace=wrap;html=1;" vertex="1" collapsed="1" parent="1">
          <mxGeometry x="190" y="430" width="70" height="30" as="geometry">
            <mxRectangle x="190" y="430" width="140" height="180" as="alternateBounds" />
          </mxGeometry>
        </mxCell>
        <mxCell id="jmR1hvINmtqzF-7DUhkX-18" value="name (inherit)" style="text;align=left;verticalAlign=middle;spacingLeft=4;spacingRight=4;overflow=hidden;points=[[0,0.5],[1,0.5]];portConstraint=eastwest;rotatable=0;whiteSpace=wrap;html=1;" vertex="1" parent="jmR1hvINmtqzF-7DUhkX-17">
          <mxGeometry y="30" width="140" height="30" as="geometry" />
        </mxCell>
        <mxCell id="jmR1hvINmtqzF-7DUhkX-19" value="age (inherit)" style="text;align=left;verticalAlign=middle;spacingLeft=4;spacingRight=4;overflow=hidden;points=[[0,0.5],[1,0.5]];portConstraint=eastwest;rotatable=0;whiteSpace=wrap;html=1;" vertex="1" parent="jmR1hvINmtqzF-7DUhkX-17">
          <mxGeometry y="60" width="140" height="30" as="geometry" />
        </mxCell>
        <mxCell id="jmR1hvINmtqzF-7DUhkX-20" value="birthday (inherit)" style="text;align=left;verticalAlign=middle;spacingLeft=4;spacingRight=4;overflow=hidden;points=[[0,0.5],[1,0.5]];portConstraint=eastwest;rotatable=0;whiteSpace=wrap;html=1;" vertex="1" parent="jmR1hvINmtqzF-7DUhkX-17">
          <mxGeometry y="90" width="140" height="30" as="geometry" />
        </mxCell>
        <mxCell id="jmR1hvINmtqzF-7DUhkX-27" value="commands (inherit)" style="text;align=left;verticalAlign=middle;spacingLeft=4;spacingRight=4;overflow=hidden;points=[[0,0.5],[1,0.5]];portConstraint=eastwest;rotatable=0;whiteSpace=wrap;html=1;" vertex="1" parent="jmR1hvINmtqzF-7DUhkX-17">
          <mxGeometry y="120" width="140" height="30" as="geometry" />
        </mxCell>
        <mxCell id="jmR1hvINmtqzF-7DUhkX-21" value="max weight&amp;nbsp;(inherit)" style="text;align=left;verticalAlign=middle;spacingLeft=4;spacingRight=4;overflow=hidden;points=[[0,0.5],[1,0.5]];portConstraint=eastwest;rotatable=0;whiteSpace=wrap;html=1;" vertex="1" parent="jmR1hvINmtqzF-7DUhkX-17">
          <mxGeometry y="150" width="140" height="30" as="geometry" />
        </mxCell>
        <mxCell id="jmR1hvINmtqzF-7DUhkX-28" value="Camel" style="swimlane;fontStyle=0;childLayout=stackLayout;horizontal=1;startSize=30;horizontalStack=0;resizeParent=1;resizeParentMax=0;resizeLast=0;collapsible=1;marginBottom=0;whiteSpace=wrap;html=1;" vertex="1" collapsed="1" parent="1">
          <mxGeometry x="190" y="490" width="70" height="30" as="geometry">
            <mxRectangle x="190" y="430" width="140" height="180" as="alternateBounds" />
          </mxGeometry>
        </mxCell>
        <mxCell id="jmR1hvINmtqzF-7DUhkX-29" value="name (inherit)" style="text;align=left;verticalAlign=middle;spacingLeft=4;spacingRight=4;overflow=hidden;points=[[0,0.5],[1,0.5]];portConstraint=eastwest;rotatable=0;whiteSpace=wrap;html=1;" vertex="1" parent="jmR1hvINmtqzF-7DUhkX-28">
          <mxGeometry y="30" width="140" height="30" as="geometry" />
        </mxCell>
        <mxCell id="jmR1hvINmtqzF-7DUhkX-30" value="age (inherit)" style="text;align=left;verticalAlign=middle;spacingLeft=4;spacingRight=4;overflow=hidden;points=[[0,0.5],[1,0.5]];portConstraint=eastwest;rotatable=0;whiteSpace=wrap;html=1;" vertex="1" parent="jmR1hvINmtqzF-7DUhkX-28">
          <mxGeometry y="60" width="140" height="30" as="geometry" />
        </mxCell>
        <mxCell id="jmR1hvINmtqzF-7DUhkX-31" value="birthday (inherit)" style="text;align=left;verticalAlign=middle;spacingLeft=4;spacingRight=4;overflow=hidden;points=[[0,0.5],[1,0.5]];portConstraint=eastwest;rotatable=0;whiteSpace=wrap;html=1;" vertex="1" parent="jmR1hvINmtqzF-7DUhkX-28">
          <mxGeometry y="90" width="140" height="30" as="geometry" />
        </mxCell>
        <mxCell id="jmR1hvINmtqzF-7DUhkX-32" value="commands (inherit)" style="text;align=left;verticalAlign=middle;spacingLeft=4;spacingRight=4;overflow=hidden;points=[[0,0.5],[1,0.5]];portConstraint=eastwest;rotatable=0;whiteSpace=wrap;html=1;" vertex="1" parent="jmR1hvINmtqzF-7DUhkX-28">
          <mxGeometry y="120" width="140" height="30" as="geometry" />
        </mxCell>
        <mxCell id="jmR1hvINmtqzF-7DUhkX-33" value="max weight&amp;nbsp;(inherit)" style="text;align=left;verticalAlign=middle;spacingLeft=4;spacingRight=4;overflow=hidden;points=[[0,0.5],[1,0.5]];portConstraint=eastwest;rotatable=0;whiteSpace=wrap;html=1;" vertex="1" parent="jmR1hvINmtqzF-7DUhkX-28">
          <mxGeometry y="150" width="140" height="30" as="geometry" />
        </mxCell>
        <mxCell id="jmR1hvINmtqzF-7DUhkX-34" value="Donkey" style="swimlane;fontStyle=0;childLayout=stackLayout;horizontal=1;startSize=30;horizontalStack=0;resizeParent=1;resizeParentMax=0;resizeLast=0;collapsible=1;marginBottom=0;whiteSpace=wrap;html=1;" vertex="1" collapsed="1" parent="1">
          <mxGeometry x="190" y="555" width="70" height="30" as="geometry">
            <mxRectangle x="190" y="430" width="140" height="180" as="alternateBounds" />
          </mxGeometry>
        </mxCell>
        <mxCell id="jmR1hvINmtqzF-7DUhkX-35" value="name (inherit)" style="text;align=left;verticalAlign=middle;spacingLeft=4;spacingRight=4;overflow=hidden;points=[[0,0.5],[1,0.5]];portConstraint=eastwest;rotatable=0;whiteSpace=wrap;html=1;" vertex="1" parent="jmR1hvINmtqzF-7DUhkX-34">
          <mxGeometry y="30" width="140" height="30" as="geometry" />
        </mxCell>
        <mxCell id="jmR1hvINmtqzF-7DUhkX-36" value="age (inherit)" style="text;align=left;verticalAlign=middle;spacingLeft=4;spacingRight=4;overflow=hidden;points=[[0,0.5],[1,0.5]];portConstraint=eastwest;rotatable=0;whiteSpace=wrap;html=1;" vertex="1" parent="jmR1hvINmtqzF-7DUhkX-34">
          <mxGeometry y="60" width="140" height="30" as="geometry" />
        </mxCell>
        <mxCell id="jmR1hvINmtqzF-7DUhkX-37" value="birthday (inherit)" style="text;align=left;verticalAlign=middle;spacingLeft=4;spacingRight=4;overflow=hidden;points=[[0,0.5],[1,0.5]];portConstraint=eastwest;rotatable=0;whiteSpace=wrap;html=1;" vertex="1" parent="jmR1hvINmtqzF-7DUhkX-34">
          <mxGeometry y="90" width="140" height="30" as="geometry" />
        </mxCell>
        <mxCell id="jmR1hvINmtqzF-7DUhkX-38" value="commands (inherit)" style="text;align=left;verticalAlign=middle;spacingLeft=4;spacingRight=4;overflow=hidden;points=[[0,0.5],[1,0.5]];portConstraint=eastwest;rotatable=0;whiteSpace=wrap;html=1;" vertex="1" parent="jmR1hvINmtqzF-7DUhkX-34">
          <mxGeometry y="120" width="140" height="30" as="geometry" />
        </mxCell>
        <mxCell id="jmR1hvINmtqzF-7DUhkX-39" value="max weight&amp;nbsp;(inherit)" style="text;align=left;verticalAlign=middle;spacingLeft=4;spacingRight=4;overflow=hidden;points=[[0,0.5],[1,0.5]];portConstraint=eastwest;rotatable=0;whiteSpace=wrap;html=1;" vertex="1" parent="jmR1hvINmtqzF-7DUhkX-34">
          <mxGeometry y="150" width="140" height="30" as="geometry" />
        </mxCell>
        <mxCell id="jmR1hvINmtqzF-7DUhkX-40" value="" style="endArrow=classic;html=1;rounded=0;exitX=0.187;exitY=0.983;exitDx=0;exitDy=0;exitPerimeter=0;entryX=0;entryY=0.5;entryDx=0;entryDy=0;" edge="1" parent="1" source="jmR1hvINmtqzF-7DUhkX-16" target="jmR1hvINmtqzF-7DUhkX-34">
          <mxGeometry width="50" height="50" relative="1" as="geometry">
            <mxPoint x="320" y="480" as="sourcePoint" />
            <mxPoint x="370" y="430" as="targetPoint" />
            <Array as="points">
              <mxPoint x="167" y="570" />
            </Array>
          </mxGeometry>
        </mxCell>
        <mxCell id="jmR1hvINmtqzF-7DUhkX-41" value="" style="endArrow=classic;html=1;rounded=0;entryX=0;entryY=0.5;entryDx=0;entryDy=0;exitX=0.188;exitY=1.011;exitDx=0;exitDy=0;exitPerimeter=0;" edge="1" parent="1" source="jmR1hvINmtqzF-7DUhkX-16" target="jmR1hvINmtqzF-7DUhkX-28">
          <mxGeometry width="50" height="50" relative="1" as="geometry">
            <mxPoint x="170" y="505" as="sourcePoint" />
            <mxPoint x="200" y="580" as="targetPoint" />
            <Array as="points">
              <mxPoint x="166" y="505" />
            </Array>
          </mxGeometry>
        </mxCell>
        <mxCell id="jmR1hvINmtqzF-7DUhkX-42" value="" style="endArrow=classic;html=1;rounded=0;entryX=0;entryY=0.5;entryDx=0;entryDy=0;exitX=0.183;exitY=1.02;exitDx=0;exitDy=0;exitPerimeter=0;" edge="1" parent="1" source="jmR1hvINmtqzF-7DUhkX-16">
          <mxGeometry width="50" height="50" relative="1" as="geometry">
            <mxPoint x="166" y="340" as="sourcePoint" />
            <mxPoint x="190" y="445" as="targetPoint" />
            <Array as="points">
              <mxPoint x="166" y="445" />
            </Array>
          </mxGeometry>
        </mxCell>
        <mxCell id="jmR1hvINmtqzF-7DUhkX-43" value="Dog" style="swimlane;fontStyle=0;childLayout=stackLayout;horizontal=1;startSize=30;horizontalStack=0;resizeParent=1;resizeParentMax=0;resizeLast=0;collapsible=1;marginBottom=0;whiteSpace=wrap;html=1;" vertex="1" collapsed="1" parent="1">
          <mxGeometry x="574" y="431" width="70" height="30" as="geometry">
            <mxRectangle x="574" y="431" width="140" height="180" as="alternateBounds" />
          </mxGeometry>
        </mxCell>
        <mxCell id="jmR1hvINmtqzF-7DUhkX-44" value="name (inherit)" style="text;align=left;verticalAlign=middle;spacingLeft=4;spacingRight=4;overflow=hidden;points=[[0,0.5],[1,0.5]];portConstraint=eastwest;rotatable=0;whiteSpace=wrap;html=1;" vertex="1" parent="jmR1hvINmtqzF-7DUhkX-43">
          <mxGeometry y="30" width="140" height="30" as="geometry" />
        </mxCell>
        <mxCell id="jmR1hvINmtqzF-7DUhkX-45" value="age (inherit)" style="text;align=left;verticalAlign=middle;spacingLeft=4;spacingRight=4;overflow=hidden;points=[[0,0.5],[1,0.5]];portConstraint=eastwest;rotatable=0;whiteSpace=wrap;html=1;" vertex="1" parent="jmR1hvINmtqzF-7DUhkX-43">
          <mxGeometry y="60" width="140" height="30" as="geometry" />
        </mxCell>
        <mxCell id="jmR1hvINmtqzF-7DUhkX-46" value="birthday (inherit)" style="text;align=left;verticalAlign=middle;spacingLeft=4;spacingRight=4;overflow=hidden;points=[[0,0.5],[1,0.5]];portConstraint=eastwest;rotatable=0;whiteSpace=wrap;html=1;" vertex="1" parent="jmR1hvINmtqzF-7DUhkX-43">
          <mxGeometry y="90" width="140" height="30" as="geometry" />
        </mxCell>
        <mxCell id="jmR1hvINmtqzF-7DUhkX-47" value="commands (inherit)" style="text;align=left;verticalAlign=middle;spacingLeft=4;spacingRight=4;overflow=hidden;points=[[0,0.5],[1,0.5]];portConstraint=eastwest;rotatable=0;whiteSpace=wrap;html=1;" vertex="1" parent="jmR1hvINmtqzF-7DUhkX-43">
          <mxGeometry y="120" width="140" height="30" as="geometry" />
        </mxCell>
        <mxCell id="jmR1hvINmtqzF-7DUhkX-48" value="owner (inherit)" style="text;align=left;verticalAlign=middle;spacingLeft=4;spacingRight=4;overflow=hidden;points=[[0,0.5],[1,0.5]];portConstraint=eastwest;rotatable=0;whiteSpace=wrap;html=1;" vertex="1" parent="jmR1hvINmtqzF-7DUhkX-43">
          <mxGeometry y="150" width="140" height="30" as="geometry" />
        </mxCell>
        <mxCell id="jmR1hvINmtqzF-7DUhkX-49" value="Cat" style="swimlane;fontStyle=0;childLayout=stackLayout;horizontal=1;startSize=30;horizontalStack=0;resizeParent=1;resizeParentMax=0;resizeLast=0;collapsible=1;marginBottom=0;whiteSpace=wrap;html=1;" vertex="1" collapsed="1" parent="1">
          <mxGeometry x="574" y="491" width="70" height="30" as="geometry">
            <mxRectangle x="574" y="491" width="140" height="180" as="alternateBounds" />
          </mxGeometry>
        </mxCell>
        <mxCell id="jmR1hvINmtqzF-7DUhkX-50" value="name (inherit)" style="text;align=left;verticalAlign=middle;spacingLeft=4;spacingRight=4;overflow=hidden;points=[[0,0.5],[1,0.5]];portConstraint=eastwest;rotatable=0;whiteSpace=wrap;html=1;" vertex="1" parent="jmR1hvINmtqzF-7DUhkX-49">
          <mxGeometry y="30" width="140" height="30" as="geometry" />
        </mxCell>
        <mxCell id="jmR1hvINmtqzF-7DUhkX-51" value="age (inherit)" style="text;align=left;verticalAlign=middle;spacingLeft=4;spacingRight=4;overflow=hidden;points=[[0,0.5],[1,0.5]];portConstraint=eastwest;rotatable=0;whiteSpace=wrap;html=1;" vertex="1" parent="jmR1hvINmtqzF-7DUhkX-49">
          <mxGeometry y="60" width="140" height="30" as="geometry" />
        </mxCell>
        <mxCell id="jmR1hvINmtqzF-7DUhkX-52" value="birthday (inherit)" style="text;align=left;verticalAlign=middle;spacingLeft=4;spacingRight=4;overflow=hidden;points=[[0,0.5],[1,0.5]];portConstraint=eastwest;rotatable=0;whiteSpace=wrap;html=1;" vertex="1" parent="jmR1hvINmtqzF-7DUhkX-49">
          <mxGeometry y="90" width="140" height="30" as="geometry" />
        </mxCell>
        <mxCell id="jmR1hvINmtqzF-7DUhkX-53" value="commands (inherit)" style="text;align=left;verticalAlign=middle;spacingLeft=4;spacingRight=4;overflow=hidden;points=[[0,0.5],[1,0.5]];portConstraint=eastwest;rotatable=0;whiteSpace=wrap;html=1;" vertex="1" parent="jmR1hvINmtqzF-7DUhkX-49">
          <mxGeometry y="120" width="140" height="30" as="geometry" />
        </mxCell>
        <mxCell id="jmR1hvINmtqzF-7DUhkX-54" value="owner (inherit)" style="text;align=left;verticalAlign=middle;spacingLeft=4;spacingRight=4;overflow=hidden;points=[[0,0.5],[1,0.5]];portConstraint=eastwest;rotatable=0;whiteSpace=wrap;html=1;" vertex="1" parent="jmR1hvINmtqzF-7DUhkX-49">
          <mxGeometry y="150" width="140" height="30" as="geometry" />
        </mxCell>
        <mxCell id="jmR1hvINmtqzF-7DUhkX-55" value="Hamster" style="swimlane;fontStyle=0;childLayout=stackLayout;horizontal=1;startSize=30;horizontalStack=0;resizeParent=1;resizeParentMax=0;resizeLast=0;collapsible=1;marginBottom=0;whiteSpace=wrap;html=1;" vertex="1" collapsed="1" parent="1">
          <mxGeometry x="574" y="556" width="70" height="30" as="geometry">
            <mxRectangle x="574" y="556" width="140" height="180" as="alternateBounds" />
          </mxGeometry>
        </mxCell>
        <mxCell id="jmR1hvINmtqzF-7DUhkX-56" value="name (inherit)" style="text;align=left;verticalAlign=middle;spacingLeft=4;spacingRight=4;overflow=hidden;points=[[0,0.5],[1,0.5]];portConstraint=eastwest;rotatable=0;whiteSpace=wrap;html=1;" vertex="1" parent="jmR1hvINmtqzF-7DUhkX-55">
          <mxGeometry y="30" width="140" height="30" as="geometry" />
        </mxCell>
        <mxCell id="jmR1hvINmtqzF-7DUhkX-57" value="age (inherit)" style="text;align=left;verticalAlign=middle;spacingLeft=4;spacingRight=4;overflow=hidden;points=[[0,0.5],[1,0.5]];portConstraint=eastwest;rotatable=0;whiteSpace=wrap;html=1;" vertex="1" parent="jmR1hvINmtqzF-7DUhkX-55">
          <mxGeometry y="60" width="140" height="30" as="geometry" />
        </mxCell>
        <mxCell id="jmR1hvINmtqzF-7DUhkX-58" value="birthday (inherit)" style="text;align=left;verticalAlign=middle;spacingLeft=4;spacingRight=4;overflow=hidden;points=[[0,0.5],[1,0.5]];portConstraint=eastwest;rotatable=0;whiteSpace=wrap;html=1;" vertex="1" parent="jmR1hvINmtqzF-7DUhkX-55">
          <mxGeometry y="90" width="140" height="30" as="geometry" />
        </mxCell>
        <mxCell id="jmR1hvINmtqzF-7DUhkX-59" value="commands (inherit)" style="text;align=left;verticalAlign=middle;spacingLeft=4;spacingRight=4;overflow=hidden;points=[[0,0.5],[1,0.5]];portConstraint=eastwest;rotatable=0;whiteSpace=wrap;html=1;" vertex="1" parent="jmR1hvINmtqzF-7DUhkX-55">
          <mxGeometry y="120" width="140" height="30" as="geometry" />
        </mxCell>
        <mxCell id="jmR1hvINmtqzF-7DUhkX-60" value="owner (inherit)" style="text;align=left;verticalAlign=middle;spacingLeft=4;spacingRight=4;overflow=hidden;points=[[0,0.5],[1,0.5]];portConstraint=eastwest;rotatable=0;whiteSpace=wrap;html=1;" vertex="1" parent="jmR1hvINmtqzF-7DUhkX-55">
          <mxGeometry y="150" width="140" height="30" as="geometry" />
        </mxCell>
        <mxCell id="jmR1hvINmtqzF-7DUhkX-61" value="" style="endArrow=classic;html=1;rounded=0;exitX=0.187;exitY=0.983;exitDx=0;exitDy=0;exitPerimeter=0;entryX=0;entryY=0.5;entryDx=0;entryDy=0;" edge="1" parent="1" target="jmR1hvINmtqzF-7DUhkX-55">
          <mxGeometry width="50" height="50" relative="1" as="geometry">
            <mxPoint x="550" y="400" as="sourcePoint" />
            <mxPoint x="754" y="431" as="targetPoint" />
            <Array as="points">
              <mxPoint x="551" y="571" />
            </Array>
          </mxGeometry>
        </mxCell>
        <mxCell id="jmR1hvINmtqzF-7DUhkX-62" value="" style="endArrow=classic;html=1;rounded=0;entryX=0;entryY=0.5;entryDx=0;entryDy=0;exitX=0.188;exitY=1.011;exitDx=0;exitDy=0;exitPerimeter=0;" edge="1" parent="1" target="jmR1hvINmtqzF-7DUhkX-49">
          <mxGeometry width="50" height="50" relative="1" as="geometry">
            <mxPoint x="550" y="401" as="sourcePoint" />
            <mxPoint x="584" y="581" as="targetPoint" />
            <Array as="points">
              <mxPoint x="550" y="506" />
            </Array>
          </mxGeometry>
        </mxCell>
        <mxCell id="jmR1hvINmtqzF-7DUhkX-63" value="" style="endArrow=classic;html=1;rounded=0;entryX=0;entryY=0.5;entryDx=0;entryDy=0;exitX=0.183;exitY=1.02;exitDx=0;exitDy=0;exitPerimeter=0;" edge="1" parent="1">
          <mxGeometry width="50" height="50" relative="1" as="geometry">
            <mxPoint x="550" y="402" as="sourcePoint" />
            <mxPoint x="574" y="446" as="targetPoint" />
            <Array as="points">
              <mxPoint x="550" y="446" />
            </Array>
          </mxGeometry>
        </mxCell>
      </root>
    </mxGraphModel>
  </diagram>
</mxfile>
